<svg id="e98eb92c-79c7-4593-81b4-cf81b10faffa" data-name="Layer 1" xmlns="http://www.w3.org/2000/svg" viewBox="0 0 247.5 185.8"><defs><style>.b3f9d8e7-d555-48a2-aa52-334ab66d6083{fill:#1da8a6;}</style></defs><g id="f0ccf99d-f7a2-4d13-8b46-87312d1ea228" data-name="separate Logo"><path id="b56da26a-2b37-4ef9-ba09-31a3fe883559" data-name="Logo part" class="b3f9d8e7-d555-48a2-aa52-334ab66d6083" d="M370.65,327.6l-72.6,17.3-73.8-17.3c.1,45.4-.1,90.7,0,136a93.49,93.49,0,0,1,42.2,9.2,89.49,89.49,0,0,1,31.6,25.8,89.35,89.35,0,0,1,31.7-26.3,83.25,83.25,0,0,1,41-8.7Zm-73.2,137.7a22.4,22.4,0,1,1,22.4-22.4A22.36,22.36,0,0,1,297.45,465.3Z" transform="translate(-173.75 -327.6)"/><path id="ac7bbd87-8dcc-4ae2-b408-a463e06bc087" data-name="Logo part" class="b3f9d8e7-d555-48a2-aa52-334ab66d6083" d="M192.85,335.3l24,8.7V473a77.8,77.8,0,0,1,30.6,7.8,78.85,78.85,0,0,1,31.6,28.4,119.35,119.35,0,0,0-86.2-26.8Z" transform="translate(-173.75 -327.6)"/><path id="a86f102c-a07e-4873-a9d3-6c53c4e7df56" data-name="Logo part" class="b3f9d8e7-d555-48a2-aa52-334ab66d6083" d="M173.75,351.6Z" transform="translate(-173.75 -327.6)"/><path id="e24c57b3-57c5-4a7c-aad2-4d251a08b1e6" data-name="Logo part" class="b3f9d8e7-d555-48a2-aa52-334ab66d6083" d="M185.85,358.5l-12.1-6.9V498.7a154.89,154.89,0,0,1,40.4,2.1,151.89,151.89,0,0,1,38.5,12.6,94.41,94.41,0,0,0-29.1-17.4,95.82,95.82,0,0,0-37.8-5.8C185.65,446.2,186,402.4,185.85,358.5Z" transform="translate(-173.75 -327.6)"/><path id="e2f5c06a-757a-4ac9-90a0-801932633f53" data-name="Logo part" class="b3f9d8e7-d555-48a2-aa52-334ab66d6083" d="M402.25,335.3l-23.4,8.7V473.6a75,75,0,0,0-32,7.7,74.22,74.22,0,0,0-30.2,27.9c6.2-5.7,14.7-13.5,27.1-18.2,27.5-10.4,47.7-9.9,58.5-8.4C402.35,433.5,402.15,384.4,402.25,335.3Z" transform="translate(-173.75 -327.6)"/><path id="b02c6afb-a535-47eb-9d01-a27d229db330" data-name="Logo part" class="b3f9d8e7-d555-48a2-aa52-334ab66d6083" d="M409.75,358.5l11.5-6.9V498.7A147.34,147.34,0,0,0,343,513.4a83.66,83.66,0,0,1,17.1-13,82.59,82.59,0,0,1,49.7-10.2C409.45,446.2,410.15,402.4,409.75,358.5Z" transform="translate(-173.75 -327.6)"/></g></svg>